<svg xmlns="http://www.w3.org/2000/svg" xmlns:xlink="http://www.w3.org/1999/xlink" version="1.1" x="0px" y="0px" viewBox="0 0 100 125" enable-background="new 0 0 100 100" xml:space="preserve"><g><path d="M87.31,37.88H69.18c-0.31-1.71-1.67-3.07-3.38-3.38v-2.2c0-1.71-1.39-3.09-3.09-3.09c-0.42,0-0.77,0.35-0.77,0.77   s0.35,0.77,0.77,0.77c0.85,0,1.55,0.69,1.55,1.55v2.2c-1.71,0.31-3.069,1.67-3.38,3.38H39.12c-0.31-1.71-1.67-3.07-3.38-3.38v-2.2   c0-0.86,0.69-1.55,1.55-1.55c0.42,0,0.77-0.35,0.77-0.77s-0.35-0.77-0.77-0.77c-1.7,0-3.09,1.38-3.09,3.09v2.2   c-1.71,0.31-3.07,1.67-3.38,3.38H12.69c-0.42,0-0.77,0.34-0.77,0.77v14.88c0,3.25,2.35,5.96,5.43,6.529v35.49   c0,0.431,0.35,0.771,0.77,0.771h63.76c0.42,0,0.771-0.34,0.771-0.771V60.06c3.08-0.569,5.43-3.279,5.43-6.529V38.65   C88.08,38.22,87.73,37.88,87.31,37.88z M75.21,91.21H24.79c-0.43,0-0.77-0.34-0.77-0.77c0-0.421,0.34-0.771,0.77-0.771h50.42   c0.43,0,0.771,0.35,0.771,0.771C75.98,90.87,75.64,91.21,75.21,91.21z M57.81,64.53c0,4.3-3.51,7.8-7.81,7.8   c-4.31,0-7.81-3.5-7.81-7.8v-8.11h15.62V64.53z M86.54,53.53c0,2.8-2.26,5.08-5.06,5.109H59.34V55.65   c0-0.431-0.34-0.771-0.76-0.771H41.42c-0.42,0-0.77,0.34-0.77,0.771v2.989H18.52c-2.8-0.029-5.06-2.31-5.06-5.109V39.41h73.08   V53.53z"/><path d="M50,68.15c2,0,3.62-1.631,3.62-3.631C53.62,62.53,52,60.9,50,60.9s-3.62,1.63-3.62,3.619C46.38,66.52,48,68.15,50,68.15z"/><path d="M40.02,9.83c-0.05,0.05-0.11,0.09-0.16,0.15c-0.75,0.79-1.15,1.83-1.13,2.92l0.11,5.87l0.06,12.07c0,0.01,0,0.01,0,0.01   v0.42c0,0.01,0,0.01,0,0.02l0.04,1.31c0.02,0.89,0.38,1.71,1.02,2.32c0.6,0.58,1.38,0.89,2.21,0.89h0.08   c0.95-0.03,1.79-0.47,2.36-1.14c0.1,0.13,0.21,0.25,0.33,0.37c0.63,0.6,1.44,0.92,2.3,0.92h0.09c0.89-0.02,1.72-0.39,2.34-1.04   c0.06-0.06,0.11-0.13,0.17-0.2c0.09,0.11,0.18,0.22,0.29,0.32c0.62,0.6,1.44,0.92,2.3,0.92h0.08c0.9-0.02,1.73-0.39,2.34-1.04   c0.061-0.06,0.12-0.13,0.17-0.2c0.091,0.11,0.19,0.22,0.29,0.32c0.631,0.6,1.44,0.92,2.301,0.92h0.09   c0.89-0.02,1.72-0.39,2.34-1.04c0.61-0.64,0.94-1.49,0.92-2.37v-1.71l-0.02-12.25c0-0.42-0.341-0.76-0.761-0.76h-0.01   c-0.42,0-0.76,0.34-0.76,0.76l0.01,12.25v1.72c0,0,0,0.01,0,0.02c0.01,0.48-0.16,0.94-0.5,1.29c-0.33,0.35-0.78,0.54-1.26,0.56   c-0.48,0.01-0.94-0.17-1.29-0.5c-0.351-0.33-0.55-0.78-0.561-1.26l-0.029-1.33l-0.011-0.47V30.8c-0.01-0.04-0.01-0.08-0.02-0.12   v-0.01c-0.08-0.34-0.38-0.59-0.75-0.59c0,0,0,0-0.01,0H54.93c-0.029,0-0.06,0.01-0.09,0.01c-0.02,0.01-0.04,0.02-0.07,0.02   c-0.02,0.01-0.05,0.02-0.069,0.03c-0.021,0.01-0.05,0.02-0.07,0.04l-0.06,0.03c-0.021,0.02-0.04,0.04-0.07,0.05   c-0.01,0.02-0.03,0.03-0.04,0.04c-0.02,0.03-0.04,0.05-0.06,0.08c-0.011,0.01-0.021,0.02-0.03,0.04   c-0.021,0.03-0.04,0.06-0.05,0.09c-0.011,0.01-0.021,0.02-0.03,0.04c-0.01,0.03-0.021,0.07-0.03,0.1c0,0.02-0.01,0.03-0.01,0.04   c-0.01,0.04-0.01,0.08-0.01,0.12c0,0.01-0.01,0.02-0.01,0.03v1.72c0,0,0,0.01,0,0.02c0.02,0.48-0.16,0.94-0.49,1.29   s-0.78,0.55-1.271,0.56c-0.479,0.01-0.93-0.16-1.279-0.5c-0.36-0.33-0.551-0.78-0.57-1.26l-0.03-1.33l-0.01-0.5v-0.07   c-0.01-0.03-0.01-0.06-0.01-0.08c-0.011-0.01-0.011-0.02-0.011-0.04c-0.089-0.33-0.39-0.57-0.74-0.57h-0.07   c-0.03,0.01-0.06,0.01-0.09,0.02c-0.02,0-0.04,0.01-0.06,0.01c-0.03,0.01-0.06,0.02-0.09,0.03c-0.01,0.01-0.03,0.02-0.05,0.03   c-0.02,0.01-0.05,0.03-0.08,0.04c-0.01,0.01-0.03,0.03-0.04,0.04c-0.02,0.02-0.05,0.04-0.07,0.06c-0.01,0.01-0.03,0.03-0.04,0.04   c-0.02,0.03-0.04,0.05-0.05,0.07c-0.01,0.02-0.02,0.04-0.03,0.06c-0.02,0.02-0.03,0.05-0.04,0.07c-0.01,0.02-0.02,0.05-0.02,0.07   c-0.01,0.02-0.02,0.05-0.03,0.08c0,0.02,0,0.05-0.01,0.07v1.79c0,0.01,0,0.01,0,0.02c0.01,0.48-0.17,0.94-0.5,1.29   c-0.33,0.35-0.78,0.55-1.26,0.56c-0.48,0.01-0.94-0.16-1.29-0.5c-0.35-0.33-0.55-0.78-0.56-1.26l-0.04-1.33v-0.56   c0-0.42-0.34-0.77-0.77-0.77c-0.42,0-0.77,0.34-0.77,0.77v1.68c0,0.01,0,0.01,0,0.02c0.03,0.97-0.72,1.78-1.65,1.8   c-0.44,0.01-0.87-0.15-1.19-0.46c-0.35-0.33-0.54-0.77-0.55-1.25l-0.04-1.31v-0.49l-0.06-12.01l-0.1-5.89   c-0.02-0.68,0.23-1.33,0.7-1.83c0.48-0.5,1.11-0.78,1.8-0.8h0.01l14.36-0.36l2.851,2.49c1.81,1.61,4.68,4.73,4.68,6.23v7.31   c0,0.43,0.35,0.77,0.771,0.77c0.43,0,0.77-0.34,0.77-0.77V18.6c0-2.67-4.67-6.9-5.21-7.38l-1.89-1.66   c0.33-0.16,0.64-0.38,0.899-0.65c0.57-0.6,0.87-1.39,0.851-2.21c-0.04-1.69-1.471-3.07-3.17-3.02L41.51,4.09   c-0.83,0.02-1.6,0.36-2.17,0.96c-0.57,0.6-0.87,1.38-0.85,2.21C38.52,8.34,39.13,9.3,40.02,9.83z"/></g><text x="0" y="115" fill="#000000" font-size="5px" font-weight="bold" font-family="'Helvetica Neue', Helvetica, Arial-Unicode, Arial, Sans-serif">Created by Cuby Design</text><text x="0" y="120" fill="#000000" font-size="5px" font-weight="bold" font-family="'Helvetica Neue', Helvetica, Arial-Unicode, Arial, Sans-serif">from the Noun Project</text></svg>