<svg xmlns="http://www.w3.org/2000/svg" xmlns:xlink="http://www.w3.org/1999/xlink" version="1.1" x="0px" y="0px" viewBox="0 0 60.001 75.0075" style="enable-background:new 0 0 60.001 60.006;" xml:space="preserve"><g><g><circle cx="30.03" cy="19.013" r="3"/><path d="M37.03,6h7c0-2.027-1.351-3.798-3.4-4.417l-0.123-0.037c-6.85-2.071-14.098-2.07-20.957,0.001l-0.318,0.096    c-1.886,0.569-3.203,2.36-3.203,4.356h7c0.552,0,1,0.448,1,1s-0.448,1-1,1h-7v2h5c0.552,0,1,0.448,1,1s-0.448,1-1,1h-5v2h5    c0.552,0,1,0.448,1,1s-0.448,1-1,1h-5v2h5c0.552,0,1,0.448,1,1s-0.448,1-1,1h-5v2h5c0.552,0,1,0.448,1,1s-0.448,1-1,1h-5v2h5    c0.552,0,1,0.448,1,1s-0.448,1-1,1h-5v2h7c0.552,0,1,0.448,1,1s-0.448,1-1,1h-7l0,0c0,2.071,1.352,3.871,3.363,4.479    c1.201,0.363,2.417,0.639,3.638,0.877v10.606c0,1.124,0.922,2.038,2.056,2.038h1.944v9c0,0.552,0.448,1,1,1h4c0.552,0,1-0.448,1-1    v-9h1.944c1.134,0,2.056-0.914,2.056-2.038V37.355c1.221-0.237,2.437-0.514,3.638-0.877l0,0c2.011-0.607,3.362-2.407,3.362-4.479    h-7c-0.552,0-1-0.448-1-1s0.448-1,1-1h7v-2h-5c-0.552,0-1-0.448-1-1s0.448-1,1-1h5v-2h-5c-0.552,0-1-0.448-1-1s0.448-1,1-1h5v-2    h-5c-0.552,0-1-0.448-1-1s0.448-1,1-1h5v-2h-5c-0.552,0-1-0.448-1-1s0.448-1,1-1h5v-2h-5c-0.552,0-1-0.448-1-1s0.448-1,1-1h5v-2    h-7c-0.552,0-1-0.448-1-1S36.478,6,37.03,6z M30.03,14.013c2.757,0,5,2.243,5,5s-2.243,5-5,5s-5-2.243-5-5    S27.273,14.013,30.03,14.013z M31.03,58h-2v-8h2V58z M33.03,45c0,0.552-0.448,1-1,1h-4c-0.552,0-1-0.448-1-1v-4    c0-0.552,0.448-1,1-1h4c0.552,0,1,0.448,1,1V45z"/><rect x="29.03" y="42" width="2" height="2"/><path d="M47.323,12.293c-0.391,0.391-0.391,1.023,0,1.414c1.702,1.702,2.639,3.936,2.639,6.293s-0.937,4.591-2.639,6.293    c-0.391,0.391-0.391,1.023,0,1.414C47.518,27.902,47.774,28,48.03,28s0.512-0.098,0.707-0.293c2.08-2.079,3.225-4.816,3.225-7.707    s-1.145-5.628-3.225-7.707C48.347,11.902,47.714,11.902,47.323,12.293z"/><path d="M54.705,8.262c-0.407-0.374-1.041-0.344-1.413,0.064c-0.373,0.408-0.344,1.04,0.064,1.413    c2.999,2.74,4.659,6.352,4.675,10.17c0.016,3.862-1.646,7.541-4.681,10.358c-0.404,0.376-0.428,1.009-0.052,1.414    C53.495,31.893,53.763,32,54.031,32c0.244,0,0.488-0.088,0.681-0.267c3.449-3.203,5.338-7.405,5.32-11.833    C60.013,15.517,58.121,11.383,54.705,8.262z"/><path d="M12.738,12.293c-0.391-0.391-1.023-0.391-1.414,0c-4.322,4.322-4.322,11.092,0,15.414C11.519,27.902,11.775,28,12.031,28    s0.512-0.098,0.707-0.293c0.391-0.391,0.391-1.023,0-1.414c-3.529-3.529-3.529-9.057,0-12.586    C13.128,13.316,13.128,12.684,12.738,12.293z"/><path d="M2.03,19.909c0.016-3.818,1.676-7.431,4.675-10.17c0.408-0.373,0.437-1.005,0.064-1.413    C6.396,7.919,5.764,7.889,5.355,8.262c-3.417,3.122-5.308,7.255-5.326,11.639C0.011,24.328,1.9,28.53,5.349,31.734    c0.193,0.179,0.437,0.267,0.681,0.267c0.268,0,0.536-0.107,0.733-0.319c0.375-0.405,0.352-1.038-0.052-1.414    C3.677,27.449,2.015,23.771,2.03,19.909z"/></g></g><text x="0" y="75.006" fill="#000000" font-size="5px" font-weight="bold" font-family="'Helvetica Neue', Helvetica, Arial-Unicode, Arial, Sans-serif">Created by Prettycons</text><text x="0" y="80.006" fill="#000000" font-size="5px" font-weight="bold" font-family="'Helvetica Neue', Helvetica, Arial-Unicode, Arial, Sans-serif">from the Noun Project</text></svg>